<svg width="24" height="24" viewBox="0 0 24 24" fill="none" xmlns="http://www.w3.org/2000/svg">
<path d="M11.9993 19.6539L11.2413 18.9689C9.60927 17.4782 8.25927 16.2022 7.19127 15.1409C6.12394 14.0789 5.28127 13.1422 4.66327 12.3309C4.04527 11.5196 3.61327 10.7862 3.36727 10.1309C3.12127 9.47557 2.9986 8.81524 2.99927 8.1499C2.99927 6.8779 3.43127 5.8099 4.29527 4.9459C5.15927 4.0819 6.22727 3.6499 7.49927 3.6499C8.37927 3.6499 9.20427 3.8749 9.97427 4.3249C10.7443 4.7749 11.4193 5.42957 11.9993 6.2889C12.5793 5.42957 13.2543 4.7749 14.0243 4.3249C14.7943 3.8749 15.6193 3.6499 16.4993 3.6499C17.7713 3.6499 18.8393 4.0819 19.7033 4.9459C20.5673 5.8099 20.9993 6.8779 20.9993 8.1499C20.9993 8.8139 20.8766 9.4739 20.6313 10.1299C20.3853 10.7872 19.9533 11.5212 19.3353 12.3319C18.7173 13.1426 17.8776 14.0789 16.8163 15.1409C15.7549 16.2022 14.4016 17.4782 12.7563 18.9689L11.9993 19.6539Z" fill="#3F7268"/>
</svg>
