<svg width="25" height="24" viewBox="0 0 25 24" fill="none" xmlns="http://www.w3.org/2000/svg">
<path d="M15 21.991V18.5C15 17.565 15 17.098 14.799 16.75C14.6674 16.522 14.478 16.3326 14.25 16.201C13.902 16 13.435 16 12.5 16C11.565 16 11.098 16 10.75 16.201C10.522 16.3326 10.3326 16.522 10.201 16.75C10 17.098 10 17.565 10 18.5V21.991H15Z" fill="#3F7268"/>
<path opacity="0.5" fill-rule="evenodd" clip-rule="evenodd" d="M6.232 12.0001C5.342 12.0001 4.553 11.6241 4 11.0331V14.0001C4 17.7711 4 19.6571 5.172 20.8281C6.115 21.7721 7.52 21.9551 10 21.9911H15C17.48 21.9551 18.885 21.7711 19.828 20.8281C21 19.6571 21 17.7711 21 14.0001V11.0341C20.5979 11.4621 20.0812 11.7654 19.5114 11.9078C18.9417 12.0501 18.343 12.0255 17.7869 11.8369C17.2307 11.6483 16.7406 11.3036 16.375 10.8441C16.0094 10.3845 15.7837 9.82941 15.725 9.24509L15.652 8.51709C15.6952 8.95544 15.6465 9.39798 15.5089 9.81643C15.3714 10.2349 15.1481 10.62 14.8533 10.9473C14.5585 11.2746 14.1986 11.5367 13.7967 11.717C13.3949 11.8974 12.9598 11.9919 12.5193 11.9945C12.0789 11.9972 11.6427 11.9079 11.2387 11.7325C10.8347 11.557 10.4717 11.2992 10.173 10.9755C9.87422 10.6518 9.64629 10.2694 9.50373 9.85261C9.36116 9.43585 9.3071 8.99393 9.345 8.55509L9.276 9.24509C9.20039 9.99994 8.84707 10.6998 8.2846 11.2089C7.72214 11.7179 6.99063 11.9999 6.232 12.0001ZM15 18.5001V21.9911H10V18.5001C10 17.5651 10 17.0981 10.201 16.7501C10.3326 16.5221 10.522 16.3327 10.75 16.2011C11.098 16.0001 11.565 16.0001 12.5 16.0001C13.435 16.0001 13.902 16.0001 14.25 16.2011C14.478 16.3327 14.6674 16.5221 14.799 16.7501C15 17.0981 15 17.5651 15 18.5001Z" fill="#3F7268"/>
<path d="M10 2H15L15.652 8.517C15.695 8.95677 15.6454 9.40065 15.5066 9.82013C15.3677 10.2396 15.1426 10.6254 14.8457 10.9526C14.5489 11.2799 14.1868 11.5415 13.7828 11.7204C13.3788 11.8994 12.9419 11.9919 12.5 11.9919C12.0582 11.9919 11.6212 11.8994 11.2172 11.7204C10.8132 11.5415 10.4511 11.2799 10.1543 10.9526C9.85741 10.6254 9.63231 10.2396 9.49346 9.82013C9.3546 9.40065 9.30505 8.95677 9.34801 8.517L10 2Z" fill="#3F7268"/>
<path opacity="0.7" d="M3.8299 5.351C4.0079 4.461 4.0969 4.016 4.2779 3.655C4.4666 3.27893 4.73231 2.94677 5.05774 2.68007C5.38318 2.41338 5.76108 2.21813 6.1669 2.107C6.5569 2 7.0099 2 7.9179 2H10.0009L9.2759 9.245C9.2365 9.65876 9.11322 10.0602 8.91359 10.4247C8.71395 10.7893 8.44214 11.1093 8.11474 11.3654C7.78734 11.6214 7.4112 11.8081 7.00929 11.914C6.60737 12.0199 6.18809 12.0428 5.77703 11.9813C5.36597 11.9198 4.97174 11.7752 4.6184 11.5564C4.26505 11.3375 3.95999 11.049 3.72184 10.7083C3.48368 10.3677 3.31741 9.9821 3.23318 9.57509C3.14894 9.16808 3.14851 8.74818 3.2319 8.341L3.8299 5.351ZM21.1699 5.351C20.9919 4.461 20.9029 4.016 20.7219 3.655C20.5333 3.27904 20.2678 2.94694 19.9425 2.68025C19.6172 2.41356 19.2395 2.21826 18.8339 2.107C18.4439 2 17.9899 2 17.0819 2H14.9999L15.7249 9.245C15.7632 9.65963 15.8856 10.0621 16.0848 10.4277C16.284 10.7934 16.5558 11.1145 16.8834 11.3715C17.211 11.6285 17.5877 11.8159 17.9902 11.9223C18.3928 12.0287 18.8129 12.0518 19.2247 11.9901C19.6365 11.9285 20.0314 11.7835 20.3852 11.564C20.739 11.3445 21.0443 11.0551 21.2824 10.7135C21.5205 10.3718 21.6863 9.98523 21.7698 9.5773C21.8533 9.16936 21.8526 8.74867 21.7679 8.341L21.1699 5.351Z" fill="#3F7268"/>
</svg>
