<svg width="24" height="25" viewBox="0 0 24 25" fill="none" xmlns="http://www.w3.org/2000/svg">
<g clip-path="url(#clip0_48_11)">
<path d="M16.5391 12.238L16.5276 12.2683L16.5377 12.2407L16.5391 12.238Z" fill="white"/>
<path d="M12.0005 0.5C8.04581 0.5 4.80005 3.7352 4.80005 7.68128C4.80005 9.21056 5.28965 10.6357 6.11525 11.803L6.08573 11.757L10.6952 19.7245L10.7184 19.755C10.9042 19.9974 11.088 20.1927 11.3105 20.3398C11.533 20.487 11.8179 20.5798 12.0977 20.5518C12.6569 20.4956 12.9819 20.1092 13.2821 19.7022L13.3008 19.677L18.3826 11.0288L18.3867 11.0216C18.5084 10.802 18.5964 10.5805 18.6718 10.3659C19.0202 9.51372 19.1996 8.60193 19.2 7.68128C19.2 3.7352 15.9552 0.5 12.0005 0.5ZM12.0005 1.7C15.3015 1.7 18 4.39232 18 7.68128C18 8.44946 17.85 9.21024 17.5584 9.92096L17.5525 9.93584L17.5472 9.95144C17.484 10.1331 17.4154 10.298 17.3362 10.441L12.306 19.0009C12.0836 19.2939 11.928 19.3633 11.978 19.358C12.0036 19.3556 12.0274 19.3758 11.9724 19.3393C11.9199 19.3045 11.8126 19.2025 11.6854 19.0402L7.11125 11.132L7.09517 11.1097C6.40565 10.1353 6.00005 8.9552 6.00005 7.68128C6.00005 4.39256 8.69957 1.7 12.0005 1.7ZM12.0005 3.584C9.72965 3.584 7.89293 5.41424 7.89293 7.68128C7.89293 9.94832 9.72989 11.7786 12.0005 11.7786C14.2712 11.7786 16.1072 9.94808 16.1072 7.68128C16.1072 5.41448 14.2712 3.584 12.0005 3.584ZM12.0005 4.784C13.6366 4.784 14.9072 6.0524 14.9072 7.68128C14.9072 9.31016 13.6368 10.5786 12.0005 10.5786C10.3642 10.5786 9.09293 9.30992 9.09293 7.68128C9.09293 6.0524 10.3644 4.784 12.0005 4.784Z" fill="white"/>
<path d="M8.16134 17.0737C4.7711 17.5528 2.3999 18.6988 2.3999 20.3857C2.3999 22.6581 6.36182 24.5001 11.9999 24.5001C17.638 24.5001 21.5999 22.6581 21.5999 20.3857C21.5999 18.6988 19.2289 17.5528 15.8389 17.0737L15.3693 17.8734C17.9243 18.2279 19.6799 18.9729 19.6799 19.8373C19.6799 21.0493 16.2414 22.0316 11.9999 22.0316C7.75838 22.0316 4.3199 21.0493 4.3199 19.8373C4.31966 18.9757 6.06374 18.2315 8.6267 17.8756L8.16134 17.0737Z" fill="white"/>
</g>
<defs>
<clipPath id="clip0_48_11">
<rect width="24" height="24" fill="white" transform="translate(0 0.5)"/>
</clipPath>
</defs>
</svg>
