<svg width="60" height="60" viewBox="0 0 60 60" fill="none" xmlns="http://www.w3.org/2000/svg">
<g clip-path="url(#clip0_235_15)">
<path fill-rule="evenodd" clip-rule="evenodd" d="M13.6366 5.45455V2.72727C13.6366 1.22105 14.8576 0 16.3638 0C17.8701 0 19.0911 1.22105 19.0911 2.72727V5.45455H24.4988C24.5277 5.45408 24.5566 5.45408 24.5858 5.45455H30.0002C31.5065 5.45455 32.7275 6.6756 32.7275 8.18182C32.7275 9.68804 31.5065 10.9091 30.0002 10.9091H26.8494C25.4964 17.8162 22.5853 24.1916 18.1395 30.0232C21.0552 33.2564 24.5648 36.1034 28.6764 38.5705C29.968 39.3455 30.3869 41.0206 29.6118 42.3123C28.837 43.6039 27.1617 44.0225 25.87 43.2477C21.5277 40.6424 17.7644 37.6315 14.5875 34.2202C11.6496 37.365 8.22332 40.335 4.31268 43.1283C3.08702 44.0037 1.38367 43.7201 0.50822 42.4942C-0.36727 41.2685 -0.0833828 39.5654 1.14228 38.6899C4.98564 35.9446 8.29832 33.0401 11.0855 29.9738C8.88367 26.946 7.07061 23.6549 5.65014 20.1038C5.09072 18.7053 5.77096 17.1181 7.16945 16.5587C8.56797 15.9993 10.1552 16.6795 10.7145 18.078C11.7788 20.7385 13.0914 23.2323 14.6549 25.5608C17.9048 21.0061 20.1069 16.1247 21.2762 10.9091H2.72748C1.22124 10.9091 0.00020809 9.68804 0.00020809 8.18182C0.00020809 6.6756 1.22124 5.45455 2.72748 5.45455H13.6366ZM50.155 46.3636H37.1181L32.5456 58.2518C32.005 59.6577 30.427 60.3589 29.0211 59.8181C27.6152 59.2775 26.914 57.6995 27.4548 56.2936L41.0912 20.8391C41.9877 18.5082 45.2855 18.5082 46.1819 20.8391L59.8183 56.2936C60.3591 57.6995 59.6579 59.2775 58.252 59.8181C56.8461 60.3589 55.2681 59.6577 54.7276 58.2518L50.155 46.3636ZM48.0572 40.9091L43.6366 29.4155L39.2159 40.9091H48.0572Z" fill="#3F7268"/>
</g>
<defs>
<clipPath id="clip0_235_15">
<rect width="60" height="60" fill="white"/>
</clipPath>
</defs>
</svg>
