<svg width="34" height="22" viewBox="0 0 34 22" fill="none" xmlns="http://www.w3.org/2000/svg">
<path d="M6.99927 11.204C6.99927 8.915 6.99927 7.771 7.51927 6.823C8.03727 5.874 8.98627 5.286 10.8833 4.108L12.8833 2.867C14.8883 1.622 15.8913 1 16.9993 1C18.1073 1 19.1093 1.622 21.1153 2.867L23.1153 4.108C25.0123 5.286 25.9613 5.874 26.4803 6.823C26.9993 7.772 26.9993 8.915 26.9993 11.203V12.725C26.9993 16.625 26.9993 18.576 25.8273 19.788C24.6553 21 22.7703 21 18.9993 21H14.9993C11.2283 21 9.34227 21 8.17127 19.788C7.00027 18.576 6.99927 16.626 6.99927 12.725V11.204Z" stroke="white" stroke-width="1.5"/>
<path d="M16.9993 14V17" stroke="white" stroke-width="1.5" stroke-linecap="round"/>
</svg>
